<?xml version="1.0" encoding="UTF-8"?>
<svg xmlns="http://www.w3.org/2000/svg" xmlns:xlink="http://www.w3.org/1999/xlink" viewBox="0 0 50 50" width="50px" height="50px">
<g id="surface107544198">
<path style=" stroke:none;fill-rule:nonzero;fill:rgb(20%,20%,20%);fill-opacity:1;" d="M 14 4 C 8.484375 4 4 8.484375 4 14 L 4 36 C 4 41.515625 8.484375 46 14 46 L 36 46 C 41.515625 46 46 41.515625 46 36 L 46 14 C 46 8.484375 41.515625 4 36 4 Z M 21.132812 13 L 28.867188 13 C 29.738281 13 30.5625 13.464844 31.011719 14.214844 L 32.84375 17.273438 C 33.113281 17.722656 33.609375 18 34.132812 18 L 39.5 18 C 40.328125 18 41 18.671875 41 19.5 L 41 35.5 C 41 36.328125 40.328125 37 39.5 37 L 10.5 37 C 9.671875 37 9 36.328125 9 35.5 L 9 19.5 C 9 18.671875 9.671875 18 10.5 18 L 15.867188 18 C 16.390625 18 16.886719 17.722656 17.152344 17.269531 L 18.988281 14.210938 C 19.4375 13.464844 20.261719 13 21.132812 13 Z M 12 14 L 14 14 C 14.550781 14 15 14.449219 15 15 L 15 16 L 11 16 L 11 15 C 11 14.449219 11.449219 14 12 14 Z M 34 19.5 C 33.449219 19.5 33 19.949219 33 20.5 C 33 21.050781 33.449219 21.5 34 21.5 C 34.550781 21.5 35 21.050781 35 20.5 C 35 19.949219 34.550781 19.5 34 19.5 Z M 25 20 C 20.863281 20 17.5 23.363281 17.5 27.5 C 17.5 31.636719 20.863281 35 25 35 C 29.136719 35 32.5 31.636719 32.5 27.5 C 32.5 23.363281 29.136719 20 25 20 Z M 25 22 C 28.03125 22 30.5 24.46875 30.5 27.5 C 30.5 30.53125 28.03125 33 25 33 C 21.96875 33 19.5 30.53125 19.5 27.5 C 19.5 24.46875 21.96875 22 25 22 Z M 25 22 "/>
</g>
</svg>
