<svg width="56" height="56" viewBox="0 0 56 56" fill="none" xmlns="http://www.w3.org/2000/svg">
<g clip-path="url(#clip0_4_12)">
<path fill-rule="evenodd" clip-rule="evenodd" d="M28 0C12.5326 0 0 12.8491 0 28.7073C0 41.3882 8.02083 52.1535 19.1497 55.9475C20.5534 56.2091 21.0638 55.3307 21.0638 54.5644C21.0638 53.8823 21.0365 52.0787 21.0273 49.6864C13.2344 51.4152 11.5937 45.8364 11.5937 45.8364C10.3177 42.519 8.48568 41.6312 8.48568 41.6312C5.94271 39.8557 8.67708 39.8931 8.67708 39.8931C11.4844 40.0987 12.9609 42.846 12.9609 42.846C15.4583 47.2381 19.5143 45.9672 21.1094 45.2383C21.3646 43.3787 22.0937 42.1171 22.8867 41.3976C16.6706 40.678 10.1354 38.211 10.1354 27.2121C10.1354 24.0723 11.2292 21.5118 13.0156 19.5027C12.7331 18.7831 11.7669 15.8582 13.2891 11.9053C13.2891 11.9053 15.6406 11.139 20.9909 14.8489C23.224 14.2135 25.6211 13.8958 28 13.8864C30.3789 13.8958 32.776 14.2135 35.0091 14.8489C40.3594 11.139 42.7018 11.9053 42.7018 11.9053C44.2331 15.8582 43.276 18.7831 42.9844 19.5027C44.7799 21.5118 45.8555 24.0723 45.8555 27.2121C45.8555 38.239 39.3112 40.6593 33.0768 41.3789C34.0794 42.2573 34.9727 44.0141 34.9727 46.6868C34.9727 50.5275 34.9453 53.6206 34.9453 54.5644C34.9453 55.3307 35.4466 56.2278 36.8685 55.9475C47.9883 52.1441 56 41.3882 56 28.7073C56 12.8491 43.4674 0 28 0Z" fill="white"/>
</g>
<defs>
<clipPath id="clip0_4_12">
<rect width="56" height="56" fill="white"/>
</clipPath>
</defs>
</svg>
