<svg width="57" height="56" viewBox="0 0 57 56" fill="none" xmlns="http://www.w3.org/2000/svg">
<g clip-path="url(#clip0_4_16)">
<path d="M28.6805 0C13.2175 0 0.680542 12.537 0.680542 28C0.680542 43.463 13.2175 56 28.6805 56C44.1435 56 56.6805 43.463 56.6805 28C56.6805 12.537 44.1435 0 28.6805 0ZM18.1712 12.607C20.1359 12.607 21.4449 13.916 21.4449 15.6613C21.4449 17.4067 20.1359 18.7157 17.9542 18.7157C15.9895 18.718 14.6805 17.4067 14.6805 15.6613C14.6805 13.916 15.9895 12.607 18.1712 12.607ZM21.6805 39.6667H14.6805V21H21.6805V39.6667ZM45.0139 39.6667H38.4245V29.4653C38.4245 26.6443 36.6675 25.9933 36.0095 25.9933C35.3515 25.9933 33.1535 26.4273 33.1535 29.4653C33.1535 29.8993 33.1535 39.6667 33.1535 39.6667H26.3472V21H33.1559V23.604C34.0332 22.085 35.7902 21 39.0849 21C42.3795 21 45.0139 23.604 45.0139 29.4653V39.6667Z" fill="white"/>
</g>
<defs>
<clipPath id="clip0_4_16">
<rect width="56" height="56" fill="white" transform="translate(0.680542)"/>
</clipPath>
</defs>
</svg>
