<svg width="57" height="56" viewBox="0 0 57 56" fill="none" xmlns="http://www.w3.org/2000/svg">
<g clip-path="url(#clip0_4_28)">
<path fill-rule="evenodd" clip-rule="evenodd" d="M28.5208 56C43.9848 56 56.5208 43.464 56.5208 28C56.5208 12.536 43.9848 0 28.5208 0C13.0568 0 0.520813 12.536 0.520813 28C0.520813 43.464 13.0568 56 28.5208 56Z" fill="white"/>
<path fill-rule="evenodd" clip-rule="evenodd" d="M14.5208 20.3485V36.2037C14.5208 37.0663 15.1522 37.7654 16.022 37.7654H40.7668C41.6357 37.7654 42.2679 37.0582 42.2679 36.2037V20.3485C42.2679 19.4019 41.7025 18.6667 40.7668 18.6667H16.022C15.0501 18.6667 14.5208 19.42 14.5208 20.3485ZM16.8024 21.7295C16.8024 21.3474 17.0336 21.1289 17.403 21.1289C17.6315 21.1289 26.6231 26.8264 27.1678 27.1606L28.575 28.0358C29.0212 27.7369 29.4692 27.4813 29.9317 27.1714C30.8755 26.5681 39.2737 21.1289 39.5049 21.1289C39.8753 21.1289 40.1056 21.3474 40.1056 21.7295C40.1056 22.1342 39.3261 22.5361 38.8185 22.8459C35.6292 24.7896 32.4408 26.9086 29.2831 28.9246C29.0989 29.0493 28.7421 29.3157 28.4748 29.2751C28.1767 29.229 19.027 23.3508 17.3624 22.3717C17.1122 22.2245 16.8024 22.0899 16.8024 21.7295Z" fill="#2E2F38"/>
</g>
<defs>
<clipPath id="clip0_4_28">
<rect width="56" height="56" fill="white"/>
</clipPath>
</defs>
</svg>
