<svg width="57" height="56" viewBox="0 0 57 56" fill="none" xmlns="http://www.w3.org/2000/svg">
<g clip-path="url(#clip0_4_26)">
<path d="M28.8403 0C13.4001 0 0.840271 12.5598 0.840271 28C0.840271 43.4402 13.4001 56 28.8403 56C44.2804 56 56.8403 43.4402 56.8403 28C56.8403 12.5598 44.2804 0 28.8403 0ZM42.5201 22.551C42.5323 22.8383 42.5396 23.1304 42.5396 23.4238C42.5396 32.3327 35.7551 42.6087 23.3511 42.6087C19.5431 42.6087 15.9968 41.4923 13.0142 39.5786C13.5413 39.6419 14.0757 39.6723 14.6224 39.6723C17.7827 39.6723 20.6911 38.5962 22.9968 36.7871C20.0458 36.7336 17.5575 34.7797 16.6968 32.1038C17.1095 32.183 17.5319 32.2256 17.9677 32.2256C18.5825 32.2256 19.1791 32.144 19.7427 31.9882C16.6603 31.3661 14.3363 28.644 14.3363 25.3753C14.3363 25.3461 14.3363 25.3181 14.3363 25.2901C15.2457 25.7953 16.2841 26.0997 17.3907 26.135C15.5792 24.9237 14.3911 22.8614 14.3911 20.5216C14.3911 19.2859 14.7222 18.1282 15.3029 17.1299C18.63 21.2094 23.5994 23.8937 29.2031 24.1762C29.0874 23.6819 29.0265 23.1682 29.0265 22.6398C29.0265 18.9158 32.0457 15.8967 35.7709 15.8967C37.7102 15.8967 39.462 16.7148 40.6916 18.0259C42.2267 17.724 43.6717 17.1628 44.9744 16.391C44.4716 17.9638 43.4015 19.2859 42.0076 20.121C43.3735 19.9555 44.6712 19.5951 45.8825 19.0583C44.9792 20.4108 43.8361 21.6002 42.5201 22.551Z" fill="white"/>
</g>
<defs>
<clipPath id="clip0_4_26">
<rect width="56" height="56" fill="white" transform="translate(0.840271)"/>
</clipPath>
</defs>
</svg>
